<svg xmlns="http://www.w3.org/2000/svg" width="32" height="32" viewBox="0 0 32 32">
  <rect width="32" height="32" rx="6" fill="#1db954"/>
  <path d="M16 6a10 10 0 1 0 0 20A10 10 0 0 0 16 6zm4.6 14.4c-.2.3-.5.4-.8.2-2.2-1.4-5.1-1.7-8.4-.9-.3.1-.6-.1-.7-.4-.1-.3.1-.6.4-.7 3.6-.8 6.8-.5 9.3 1.1.3.1.3.5.2.7zm1.2-2.6c-.2.3-.6.4-1 .2-2.6-1.6-6.5-2.1-9.5-1.1-.4.1-.8-.1-.9-.5-.1-.4.1-.8.5-.9 3.5-.9 7.8-.5 10.7 1.3.3.1.4.6.2 1zm.1-2.7c-3.1-1.8-8.2-2-11.1-1.1-.5.1-.9-.1-1.1-.6-.1-.5.1-.9.6-1.1 3.3-.9 8.9-.8 12.4 1.3.4.2.6.8.3 1.2-.2.4-.8.5-1.1.3z" fill="#fff"/>
</svg>
