<svg xmlns="http://www.w3.org/2000/svg" width="80" height="80" viewBox="0 0 80 80">
  <rect width="80" height="80" rx="14" fill="#1db954"/>
  <path d="M40 15a25 25 0 1 0 0 50A25 25 0 0 0 40 15zm11.5 36c-.4.7-1.3 1-2 .6-5.6-3.4-12.6-4.2-20.9-2.3-.8.2-1.5-.3-1.7-1-.2-.8.3-1.5 1-1.7 9-2 17-.9 23.2 2.6.8.4.9 1.3.4 1.8zm3-6.4c-.5.8-1.5.9-2.4.4-6.3-3.9-16-5-23.7-2.7-1 .3-2-.3-2.2-1.2-.3-1 .3-2 1.2-2.2 8.6-2.6 19.3-1.3 26.6 3.1 1 .4 1.2 1.6.5 2.6zm.3-6.8C47.6 34.2 34.3 34 26.5 36.3c-1.2.4-2.4-.3-2.7-1.5-.4-1.2.3-2.4 1.5-2.7 9-2.7 24-2.2 33.3 3.4 1 .6 1.5 2 .9 3-.5 1.1-1.9 1.5-2.7.8z" fill="#fff"/>
</svg>
